<?xml version="1.0" encoding="UTF-8"?>
<svg id="Layer_1" data-name="Layer 1" xmlns="http://www.w3.org/2000/svg" viewBox="0 0 108 108">
  <defs>
    <style>
      .cls-1 {
        fill: #0ddae3;
      }

      .cls-2 {
        fill: #fff;
      }

      .cls-3 {
        fill: #1f2d2e;
      }

      .cls-4 {
        fill: #105154;
      }
    </style>
  </defs>
  <rect class="cls-2" x="-147.19" y="-6.78" width="406.88" height="131.74"/>
  <g>
    <path class="cls-3" d="M54,26.2c-15.94,0-28.77,13.55-27.57,29.74,1,13.52,11.9,24.43,25.41,25.46,16.21,1.24,29.8-11.61,29.8-27.56s-12.4-27.65-27.64-27.65ZM56.79,77.84c-.43.05-.85-.17-1.07-.55l-.43-.73-.31-.53c-.42-.73-1.48-.73-1.9,0l-.31.53-.43.74c-.22.38-.64.6-1.07.55-11.15-1.26-20.02-10.12-21.28-21.26-.05-.43.17-.85.55-1.07l.73-.42.53-.31c.73-.42.73-1.48,0-1.9l-.53-.31-.73-.42c-.38-.22-.6-.64-.55-1.07,1.27-11.13,10.12-19.99,21.25-21.25.43-.05.85.17,1.07.55l.42.73.31.53c.42.73,1.48.73,1.9,0l.31-.53.43-.74c.22-.38.64-.6,1.07-.55,11.13,1.27,19.98,10.13,21.25,21.25.05.43-.17.85-.55,1.07l-.73.42-.53.31c-.73.42-.73,1.48,0,1.9l.53.31.73.42c.38.22.6.64.55,1.07-1.26,11.12-10.1,19.97-21.21,21.25Z"/>
    <path class="cls-1" d="M59.76,48.09l-5.75,5.76h0v-14.8c.38,0,.76.19.97.57l4.22,7.72c.15.28.34.54.57.76Z"/>
    <path class="cls-4" d="M68.8,53.85h-14.8l5.75-5.76c.22.23.47.41.76.57l7.72,4.22c.38.21.57.59.57.97Z"/>
    <path class="cls-1" d="M68.8,53.84c0,.38-.19.76-.57.97l-7.72,4.22c-.28.15-.54.35-.76.57l-5.75-5.75h14.8Z"/>
    <path class="cls-4" d="M59.76,59.6c-.23.23-.42.48-.57.76l-4.22,7.71c-.21.38-.59.57-.97.57v-14.8h0l5.75,5.75Z"/>
    <path class="cls-1" d="M54,53.84v14.8c-.38,0-.76-.19-.97-.57l-4.22-7.71c-.16-.28-.34-.54-.57-.76l5.75-5.75Z"/>
    <path class="cls-4" d="M54,53.84l-5.75,5.75c-.23-.22-.48-.42-.76-.57l-7.71-4.22c-.38-.21-.57-.59-.57-.97h14.8Z"/>
    <path class="cls-1" d="M54,53.84h0s-14.8,0-14.8,0c0-.38.19-.76.57-.97l7.71-4.22c.28-.16.54-.34.76-.57l5.75,5.75Z"/>
    <path class="cls-4" d="M54,39.04v14.8l-5.75-5.75c.23-.22.41-.48.57-.76l4.22-7.72c.21-.38.59-.57.97-.57Z"/>
    <g>
      <path class="cls-3" d="M39.87,24.34c-.43-1.31.24-2.69,1.49-3.14,1.26-.45,2.61.2,3.04,1.51.42,1.27-.21,2.68-1.5,3.15-1.23.44-2.59-.17-3.04-1.51ZM40.95,23.95c.24.72.91,1.1,1.61.84.67-.24,1.02-.94.77-1.7-.24-.73-.93-1.08-1.61-.83-.68.24-1.01.96-.77,1.69Z"/>
      <path class="cls-3" d="M45.78,24.83l-.89-4.69,2.27-.47c.85-.18,1.66.31,1.83,1.2.13.67-.14,1.26-.62,1.6l1.27,1.56-1.18.24-1.16-1.44-.75.16.31,1.62-1.09.23ZM46.37,22.02l.95-.2c.41-.08.61-.39.55-.72-.06-.31-.35-.51-.76-.42l-.95.2.22,1.14Z"/>
      <path class="cls-3" d="M49.85,19.22l3.25-.24.07.97-2.14.16.06.89,1.87-.14.06.97-1.87.14.06.97,2.17-.16.07.97-3.28.24-.32-4.77Z"/>
      <path class="cls-3" d="M54.1,23.71l.24-4.78.94.05,2.16,3.04.15-2.91,1.11.06-.24,4.77-.96-.05-2.14-3.01-.15,2.88-1.11-.06Z"/>
      <path class="cls-3" d="M59.37,24.11l.93-4.65,1.95.43c1.26.27,2.07,1.53,1.81,2.82-.26,1.28-1.48,2.11-2.74,1.83l-1.95-.43ZM61.4,23.56c.75.16,1.39-.35,1.54-1.11.15-.76-.24-1.48-.98-1.65l-.77-.17-.55,2.76.76.17Z"/>
      <path class="cls-3" d="M66.83,21.17l1.23.46.16,5.11-1.11-.42v-.93s-1.83-.68-1.83-.68l-.57.71-1.11-.42,3.24-3.84ZM65.87,23.98l1.23.46-.02-1.96-1.21,1.5Z"/>
    </g>
    <g>
      <path class="cls-3" d="M46.83,83.3l1.32.24.98,4.98-1.19-.22-.16-.91-1.95-.36-.47.79-1.19-.22,2.66-4.31ZM46.3,86.22l1.31.24-.33-1.91-.98,1.67Z"/>
      <path class="cls-3" d="M50.79,83.92l.96,1.86,1.2-1.72,1.32.08-2.05,2.83-.11,1.74-1.13-.07.11-1.74-1.69-3.07,1.38.09Z"/>
      <path class="cls-3" d="M55.08,88.77l-.29-4.69,2.17-.14c.87-.05,1.51.38,1.55,1.16.03.47-.18.84-.58,1.11.56.17.81.54.85,1.04.05.71-.46,1.32-1.37,1.37l-2.33.15ZM56.91,85.86c.31-.02.46-.26.45-.51-.01-.24-.22-.47-.54-.45l-.84.05.06.96.87-.06ZM57.07,87.69c.33-.02.5-.28.48-.51-.02-.26-.22-.47-.54-.45l-.92.06.06.96.92-.06Z"/>
      <path class="cls-3" d="M60.35,83.5l.58,2.89c.1.5.49.75.99.65.51-.1.77-.48.67-.99l-.58-2.89,1.11-.23.6,2.95c.22,1.07-.38,1.88-1.59,2.12-1.22.25-2.06-.24-2.28-1.33l-.6-2.95,1.11-.23ZM59.84,82.61c-.06-.31.1-.56.4-.62.3-.06.56.11.62.41.06.3-.11.55-.41.62s-.55-.1-.61-.41ZM61.11,82.35c-.06-.31.1-.56.4-.62.3-.06.56.11.62.41s-.11.56-.41.62c-.3.06-.55-.1-.61-.41Z"/>
    </g>
  </g>
</svg>